<?xml version="1.0" encoding="UTF-8"?>
<svg version="1.1" viewBox="0 0 1600 1200" width="1280" height="1280" xmlns="http://www.w3.org/2000/svg">
<path transform="translate(0)" d="m0 0h1600v1200h-1600z" fill="#1F1567"/>
<path transform="translate(799,299)" d="m0 0h25l16 3 19 8 10 7 13 11 10 13 7 12 6 19 3 24 3 6v13l-4 13-6 11-8 10-8 6-8 8 8 9 8 13 3 7 10-3h17l14 7 8 9 4 8 1 5v13l-4 11-7 9-4 3 1 7 12 30 8 19 9 7 5 9 3 11 19 11 1 1v5l-13 8-26 15-13 8-11 6-24 14-2 1v25l-4 6h-2v2l5 2 14 9 1 3-5 5-6 4 1 5 8 6 3 9-9 6-25 14-22 13-29 17-16 9-7 2-10-1-16-8-4-3-11-6-6-3v-2l-7-2v-2l-6-2-10-6-9-5-10-6-11-6-13-8-27-15-48-28v-91l9-6 56-32 36-21 1-2-6-24-1-12 2-1h15l1 1-1-12-2-6-2-11-2-32v-6l-1-2-4 8-4 12-8 1-12 29 1 5 1 3v13l-5 12-7 8-9 7-9 5h-3l-5-5-7-8-3-6-2-16v-9l9-10 10-5 3-1h14l2 1 1-6 9-21 2-4-4-2-6-7-5-13v-11l4-12 6-8 8-7 10-4h11l-6-18-1-5-1-25-5-6-2-7v-10l3-12 7-13 6-8 10-8 6-3 15-1 11-7 11-5z" fill="#3B3E98"/>
<path transform="translate(487,444)" d="m0 0h15l12 3 9 5 7 8v9l-1 3 2 10v7l-2 5 1 14-5 2-2 12-2 5-2 8-10 3-7 3-2 4 3 6 1 13 6 4v2l5 2 12 12 8 12 2 8v6l-4-5-8-11-10-8-10-7-3-6v-2l-3 2-5-1-13-8-22-12 8 6 17 11 13 8 4-2 2 6 9 5 3 2v2l4 2 12 12 5 7 2 1 1 80 2 28 10 40 2 13v19l4-1 1 1 1 13-5-2 8 6v2l5-5-2-4v-1l-2 1-1-9 12-10 7 1 2 2h2l10 5 2 7 3 27 4 30 1 11 13 2 15 3 2 1 34 5 3 1 38 4 17 2 29 2 25 1 77 1 17 3 13 4 15 8 12 10 8 11 6 12 2 10 1 1v24l-4 15-7 14h-2v3h-2l-2 5-8 9-12 9-3 2h-3v2l-20 8-18 4h-89l-42-3-44-5-28-5-9-1-10-2-29-6-16-4-33-9-16-6-11-6-10-8-8-7-10-13-3-5v-2l-4 4-7 8-8 5-3 1h-12l-5-5v-11l3-11v-35l2-14 5-21 4-22v-11l-2-23-1-25-2-8 16 3h37l5 10 5 5 4 3v7l1-4v-12l4-6 2-2-4-5-11-19-12-23-10-19-16-41-8-19-3-12-2-19v-5l-2-3-11-51-5-23-4-21-3-13v-4l6-3h9l-4-13-5-19v-15l6-12 7-6 8-4z" fill="#2F7DA2"/>
<path transform="translate(1091,293)" d="m0 0 13 1 12 4 9 7 5 9 2 9v12l-2 7v9l-3 10-4 6v6l8 9 6 10 14 11 21 16 5 4 2 5v18l-4 19-6 18-7 16 22 12 19 11 12 8 14 10 13 11 10 9 13 13 13 17 10 17 7 17 4 20 1 11 1 32v97l-1 26-2 22-4 20-5 13-6 11-1 2h-2v3h-2v3h-2l-1 4-9 11-9 10-12 12-11 9-13 10-18 12-9 5-10 6h-3v2l-24 12-7 3-10 4-8 2h-22l-13-5-10-8-7-10-5-12-2-9v-24l4-17 5-13 9-16 11-14 12-12 15-11 12-7 18-8 22-11 21-12 12-8 14-10 11-9 10-9 16-16 5-7-1-4-12-13-15-15-14-11-18-13-20-12-18-10-19-9-3-2v-18l1-17h-2l-11 4-17 2h-34l-12-6-7-7-7-14v-3h-2l-1 3-2 1h-9l-14-7-14-10v-9l9-36v-6l-15-6-14-5-3-7v-21l3-12 5-14 13-27 12-29 8-15 3-3 21-5 7-1-5-14-1-16-2-9v-18l5-12 6-8 8-7 7-3z" fill="#2A568B"/>
<path transform="translate(699,437)" d="m0 0h5l-5 5-6 7-4 10-1 4v11l5 13 7 8 2 1-1 4-10 24-1 3h-16l-10 4-9 8-2 3v11l2 14 5 9 9 8v2l12-6 9-7 6-7 5-12v-13l-2-5 1-6 11-26 1-1h8l3-12 4-9 3 3v10l2 30 3 13 2 10v5l-6-1h-13l5 25 3 12-5 4-25 14-24 14-28 16-20 12v91l25 14 24 14 25 14 13 8 11 6 7 4 9 6 12 6 7 4v2l5 1 2 1v2l5 1 5 3 7 4 13 8 11 4 10-1 16-8 22-13 65-38-3-9-9-7 1-5 9-6 1-4-19-12v-2l4-4 1-2v-25l27-16 14-8 48-28h1v85l-10 7-25 14-30 18 5 4 10 6-4 4-11 7 1 4 13 8v3l-12 7-3 5 5 2 11 7-4 4-20 12-4 8-5 2v18l-26 15-19-4-7-1-77-1-41-2-24-2-32-4-12-1-16-3-21-3-13-3-17-4-2-11-5-38-3-25-10-5-4 1v-3l-7-1-11 9v6l1 2 4-2-2 4 2 4-4 4h-2l-4-4-5-3 2-2v2l4 1-2-13h-4l-2-26-5-23-6-23-2-28v-80l-3-1-8-10-10-10-2-1v-2l-4-2-9-5-1-5-4 2-24-15-12-8-5-5 5 2 24 13 11 7 6-1 4 8 12 8 9 8 7 10 2 3-1-7-2-7-9-12-9-9-5-3v-2l-4-2-3-2-1-13-3-6 2-4 4-3 14-3 2-11 4-14 4-2v-7l-1-7 2-5v-10l4-2 16-9 18-6 41-10 29-6 45-7z" fill="#2B578C"/>
<path transform="translate(885,503)" d="m0 0 3 4 11 20 7 8 14 14 8 6v2l5-1 5 10 17 42 5 5 5 4 5 9 3 11 19 11 1 1v5l-13 8-26 15-13 8-11 6-24 14-2 1v25l-4 6h-2v2l5 2 14 9 1 3-5 5-6 4 1 5 8 6 3 9-9 6-25 14-22 13-29 17-16 9-7 2-10-1-16-8-4-3-11-6-6-3v-2l-7-2v-2l-6-2-10-6-9-5-10-6-11-6-13-8-27-15-48-28v-91l7-5 19 2 4 1h17l13-5 19-10 11-3 1-1h5l-1 2-4 2 4 3-2 9v14l4 10 4 6 12-1 17 1 4 2 15 3 9 3 9-1 11 5 23 1v-2h-10l3-2h3v-4l5-1 9 4 11 1v-3l6-1v-2h32v-2h8l4-5 4-9 1-4v-13l-4-10-7-9-4-5 5 2 5 3 5 4-1 4 4 2 5 4 2 1v2l10 5 3-17 4-8 4-6 9-6h2l-16-40-4-9-17-1-9-4-9-7-6-10-2-6v-17l5-12z" fill="#22A1C0"/>
<path transform="translate(875,463)" d="m0 0 5 3 9 12 7 14 10-3h17l14 7 8 9 4 8 1 5v13l-4 11-7 9-4 3-2 3h-5l-5-5-10-9-5-5v-2l-4-2-6-7-12-22-1-1-5 12v17l4 10 6 8 9 6 6 2 17 1 6 12 14 35v3l-11 7-6 10-3 12-1 9-8-4-3-2v-2l-5-2-6-5-1-5-8-5-3-1 8 9 5 10 1 3v13l-4 11-4 6-3 2-7-1v2h-32v2l-6 1v3l-5 1-8-2-9-3h-3v4l-3 1 7 1v2h-23l-12-5-8 1-17-5-9-2-2-1-21-1-8 1-4-5-4-8-1-4v-14l2-9-4-4 5-2-5 1-13 4-21 11-9 3h-17l-4-1-13-1-4-3 56-32 36-21 1-2-6-24-1-12 2-1h15l8 5 7 5 3 1v2l5 1 10 4 3 1v2l9 2v2l6 1 6 2v-3l-3-10-4-8-3-7-2-8-5-22-2-10 8 1 16 3h28l16-4 16-8 8-7 4-5 2-7v-10l-2-6z" fill="#3494B0"/>
<path transform="translate(1297,694)" d="m0 0h2l1 3v113l-2 22-4 20-5 13-6 11-1 2h-2v3h-2v3h-2l-1 4-9 11-9 10-12 12-11 9-13 10-18 12-9 5-10 6h-3v2l-24 12-7 3-10 4-8 2h-22l-13-5-10-8-7-10-5-12-2-9v-24l4-17 5-13 9-16 11-14 12-12 15-11 12-7 18-8 22-11 21-12 12-8 14-10 11-9 10-9 16-16 5-7h2l2-4 11-18 8-16z" fill="#2F7DA2"/>
<path transform="translate(699,437)" d="m0 0h5l-5 5-6 7-4 10-1 4v11l5 13 7 8 2 1-1 4-10 24-1 3h-16l-10 4-9 8-2 3v11l2 14 5 9 9 8v2l12-6 9-7 6-7 5-12v-13l-2-5 1-6 11-26 1-1h8l3-12 4-9 3 3v10l2 30 3 13 2 10v5l-6-1h-13l5 25 3 12-5 4-25 14-24 14-28 16-15 9-6 3v-44l-28 6-35 9-16 3h-5v35h-1v-46l-3-1-8-10-10-10-2-1v-2l-4-2-9-5-1-5-4 2-24-15-12-8-5-5 5 2 24 13 11 7 6-1 4 8 12 8 9 8 7 10 2 3-1-7-2-7-9-12-9-9-5-3v-2l-4-2-3-2-1-13-3-6 2-4 4-3 14-3 2-11 4-14 4-2v-7l-1-7 2-5v-10l4-2 16-9 18-6 41-10 29-6 45-7z" fill="#2B578C"/>
<path transform="translate(617,605)" d="m0 0h6l1 135 25 14 20 12-4 4-9 5 1 5 10 6v5l-9 6-2 1v5l13 8v3l-13 8 1 5 11 7v4l-12 7 1 5 26 15 28 16 1 2-40-4-16-3-21-3-13-3-17-4-2-11-5-38-3-25-10-5-4 1v-3l-7-1-11 9v6l1 2 4-2-2 4 2 4-4 4h-2l-4-4-5-3 2-2v2l4 1-2-13h-4l-2-26-5-23-6-23-2-28v-34l1-35 18-3 26-7 25-6z" fill="#1F1567"/>
<path transform="translate(885,503)" d="m0 0 3 4 11 20 7 8 14 14 8 6v2l5-1 5 10 17 42 5 5 5 4 5 9 3 11 19 11 1 1v5l-13 8-26 15-13 8-11 6-24 14-12 6-17 10-29 17-24 14-8 4-3 1h-10l-9-4-25-14-24-14-78-45-28-16-15-9-1-1v-5l7-5 19 2 4 1h17l13-5 19-10 11-3 1-1h5l-1 2-4 2 4 3-2 9v14l4 10 4 6 12-1 17 1 4 2 15 3 9 3 9-1 11 5 23 1v-2h-10l3-2h3v-4l5-1 9 4 11 1v-3l6-1v-2h32v-2h8l4-5 4-9 1-4v-13l-4-10-7-9-4-5 5 2 5 3 5 4-1 4 4 2 5 4 2 1v2l10 5 3-17 4-8 4-6 9-6h2l-16-40-4-9-17-1-9-4-9-7-6-10-2-6v-17l5-12z" fill="#3A94B9"/>
<path transform="translate(487,444)" d="m0 0h15l12 3 9 5 7 8v9l-1 3 2 10v7l-2 5 1 14-5 2-2 12-2 5-2 8-10 3-7 3-2 4 3 6 1 13 6 4v2l5 2 12 12 8 12 2 8v6l-4-5-8-11-10-8-10-7-3-6v-2l-3 2-5-1-13-8-22-12 8 6 17 11 13 8 4-2 2 6 9 5 3 2v2l4 2 12 12 5 7 2 1 1 80 2 28 10 40 2 13v23l-7 8-3 2h-3l-2-11-4-2-12-21-12-23-10-19-16-41-8-19-3-12-2-19v-5l-2-3-11-51-5-23-4-21-3-13v-4l6-3h9l-4-13-5-19v-15l6-12 7-6 8-4z" fill="#464AA2"/>
<path transform="translate(353,243)" d="m0 0h5l34 20 14 8 19 11 35 20 41 24 6 7 3 8v74l-4 5-6 3h-7l-24-14-26-15-4-1-9 15-5 4h-3l-12-35v-3l-5-2-28-16-27-16-6-9-2-5v-74l4-5z" fill="#22A1C0"/>
<path transform="translate(1129,171)" d="m0 0h5l14 8 13 8 11 6 15 9 11 6 15 9 11 6 15 9 11 6 15 9 11 6 7 7 3 7v77l-3 4-6 3h-8l-17-10-21-12-13-8h-3l-7 13-5 5-4 1-9-24-4-13-24-14-26-15-9-6-5-6-3-6v-77l5-5z" fill="#42E7E0"/>
<path transform="translate(1091,293)" d="m0 0 13 1 12 4 9 7 5 9 2 9v12l-2 7v9l-3 10-4 6v6l2 2v11l-4 8-7 8-16 24-5 8h-1l-2-16 6-6h2v-2l-4-2-3-3-11-1 1 2v17l-4 8v33l10-20 3 1 3 11-9 14-4 8 1-1 10-14h2l3 15 4 24 5-2 2-5 6-9 8-5 7-1-1 5-9 6 12 1 1 1v5l-2 1-2 5-6 1v8l8 20 4 9-1 4-8 4h-9l-17-4-18-6-28-11-12-6 1-8 2-10 1-3-8-7-3-2 1-7 4-8v-38l-3-19v-10l4-20 1-4 21-5 7-1-5-14-1-16-2-9v-18l5-12 6-8 8-7 7-3z" fill="#3B3C97"/>
<path transform="translate(368,573)" d="m0 0h7l6 4 5 6 5 14 2 9v36l-4 22-4 14-7 20-10 21-11 18 2 6 8 17 8 21 5 18 2 13 2 8 1 9v31l-4 17-6 11-5 4-2 1h-7l-6-4-7-8-5-8-1-5h-2l-5-12-5-17-2-12-1-11v-157l2-20 3-11 6-16 9-17 10-14 9-7z" fill="#2F7DA2"/>
<path transform="translate(831,301)" d="m0 0 9 1 19 8 10 7 13 11 10 13 7 12 6 19 3 24 3 6v13l-4 13-6 11-8 10-8 6-6 4h-11l-5-2-4 1-14-3-16-5-9-4-7-3-16-8-7-4-6-9 5-5 2-3-1-8-3-11-1-8v-16l3-16 7-17 9-13 4-5h2v-2h2v-2l6-5h2v-2l8-4z" fill="#A19ED6"/>
<path transform="translate(875,463)" d="m0 0 5 3 9 12 7 14 10-3h17l14 7 8 9 4 8 1 5v13l-4 11-7 9-4 3-2 3h-5l-5-5-10-9-5-5v-2l-4-2-6-7-12-22-1-1-5 12v17l4 10 6 8 9 6-1 14-2 5-2 8-6 16-9 15-3 2-14-3-25-5-9-4-8-3-8-4-7-3-7-7-6-8-1-3 1-2-4-11-5-12-2-5-6-26-2-10 8 1 16 3h28l16-4 16-8 8-7 4-5 2-7v-10l-2-6z" fill="#A19ED6"/>
<path transform="translate(1039,388)" d="m0 0 1 3-4 20v10l3 19v38l-5 10v5l8 6 3 4-2 5-2 10v5l21 9 16 6 7 8 13 8 15 5 5 1h18l10-3 7-3 3 29v18l-2 8-2 5h-3l-11 4-17 2h-34l-12-6-7-7-7-14v-3h-2l-1 3-2 1h-9l-14-7-14-10v-9l9-36v-6l-15-6-14-5-3-7v-21l3-12 5-14 13-27 12-29 8-15z" fill="#364A96"/>
<path transform="translate(898,442)" d="m0 0 13 7 3 2 9-1 4-4h66v203l-11-6-10-6-4-13-6-9-7-5-15-36-6-15v-5l7-6 6-10 2-7v-13l-3-9-6-9-8-6-9-4h-17l-10 3-9-17-9-11-2-2 7-8 6-4 6-5z" fill="#283D80"/>
<path transform="translate(444,521)" d="m0 0 3 2 6 27 5 25 11 52 2 6h1v10l1 10v9l4 23 7 28 12 39 12 36-7 2h-20l-14-3-12-5-10-7-9-9-5-8-1-31 10-55v-16l-3-23-5-23-5-15-4-10v-13l4-16 6-16 9-17z" fill="#3A3C97"/>
<path transform="translate(574,783)" d="m0 0 7 1 2 2h2l10 5 2 7 3 27 4 30 1 11-14-3-28-7-23-7-12-2h-15l-10 3-9 5-7 7-6 10-4 15v28l4 18 7 19 4 8-7 9-7 6-7 3h-12l-5-5v-11l3-11v-35l2-14 5-21 4-22v-11l-2-23-1-25-2-8 16 3h37l5 10 5 5 4 3v7l1-4v-12l4-6 3-2 2 4v6l6-3 6-7 1-4 4-1 1 1 1 13-5-2 8 6v2l5-5-2-4v-1l-2 1-1-9z" fill="#374A97"/>
<path transform="translate(1125,376)" d="m0 0 5 5 7 11 14 11 21 16 5 4 2 5v18l-4 19-6 18-11 25-9 17v7l3 17v6l-11 5-5 1h-18l-15-4-12-6-9-7-4-5 10 3 17 5 10 2h9l8-4-1-5-8-20-3-7 1-8 6-1 2-6h2l-1-5-13-1 5-5 5-3 1-4-11 4-5 4-7 12-5 2-3-12-4-24v-3l-5 5-7 11-2-1 8-15 5-7-3-11-2-1-2 6-8 16h-1v-35l4-8v-19h11l7 6v2l-7 6 1 8 1 7 9-15 12-17 8-10 2-5z" fill="#3A3292"/>
<path transform="translate(1038,596)" d="m0 0h20l7 11 10 10 10 6 15 3 9 1 30 2 2 9 1 35 5 38 3 21v28l-3 21-5 2-9 1-5-1v-27l-2-32-2-10-11-26-11-32-6-10-9-10v17l-3 24 1 10 6 25 1 7v19l-3 21-4 2h-11l-6-3-3-5v-12l-3-26-5-22-7-21-2-5-6-28z" fill="#3C59A6"/>
<path transform="translate(714,628)" d="m0 0h5l-1 2-4 2 4 3-2 9v14l4 10 4 6 12-1 17 1 4 2 15 3 9 3 9-1 11 5 14 1 8 4 7 3 4 3 9 2h7l15-5 15-8 4-2 11 6 8 7 3 3-16 10-41 23-5-1-13-6-9-1-11-6h-7l-7-1-8 3h-8l-5-1-3 1-10-4-9 2-6 3-25-14-24-14-56-32-19-11v-3l6-4 19 2 4 1h17l13-5 19-10 11-3z" fill="#22A2C0"/>
<path transform="translate(902,706)" d="m0 0 2 2v23l-4 6h-2v2l5 2 14 9 1 3-5 5-6 4 1 5 8 6 3 9-9 6-25 14-22 13-29 17-16 9-7 2-10-1-12-6 1-24 1-1 12 1 3-1 1-22 5-4 6-4 1-3v-10l-2-4-10-6v-1l12-3 26-15 27-16 26-15z" fill="#4B7FB6"/>
<path transform="translate(513,846)" d="m0 0h15l16 3 19 6 33 8 9 3-1 6-9 9-11 9-11 10-11 9-12 11-11 9-11 10-7-1-6-3-9-4-2-10-1-12-4 20-4 23-2 6-4-2-7-17-4-13-2-11v-28l4-15 7-11 8-8 10-5z" fill="#3A93B8"/>
<path transform="translate(623,654)" d="m0 0 15 8 17 10 52 30 28 16 8 5v2l-23 13-17 10-7 4 3 3 14 8-1 3-17 9-6 3-25-14-24-14-17-10z" fill="#3495B0"/>
<path transform="translate(368,573)" d="m0 0h7l6 4 5 6 5 14 2 9v36l-4 22-4 14-7 20-10 21-12 19-4-5-9-15-7-14-4-11-3-14-1 137h-1v-157l2-20 3-11 6-16 9-17 10-14 9-7z" fill="#2A568B"/>
<path transform="translate(831,301)" d="m0 0 9 1 19 8 8 5-4 4-16 5-11 6-10 9-9 14-5 16v20l4 14 6 11 9 10 9 6 3 11 4 5 10 6 3 1-3-9v-10l4-14 6-11 11-12 9-6 3-1h10l5 3 5 6 1 3v13l-4 13-6 11-8 10-8 6-6 4h-11l-5-2-4 1-14-3-16-5-9-4-7-3-16-8-7-4-6-9 5-5 2-3-1-8-3-11-1-8v-16l3-16 7-17 9-13 4-5h2v-2h2v-2l6-5h2v-2l8-4z" fill="#8F80AF"/>
<path transform="translate(992,654)" d="m0 0h1v85l-10 7-25 14-30 18-7 4h-2l-5-10-8-6 1-5 9-6 1-4-19-12v-2l4-4 1-2v-25l27-16 14-8 24-14z" fill="#3C59A6"/>
<path transform="translate(745,460)" d="m0 0 4 2 2 2-1 4-3 8v6l5-8 4-4 4 1 17 9 16 5 6 1h28l19-5 16-8h4l5 8v7l-4 7-8 8-16 8-10 3-8 2h-28l-16-3-7-1 5 21 3 14 2 5 5 12 4 11-1 3 1 2-4-1-9-3v-2l-6-1-12-5-6-3-3-1v-2l-4-1-9-6-1-2h-2l-6-30-2-32v-6l-1-3 4-8 9-10z" fill="#6963A5"/>
<path transform="translate(487,444)" d="m0 0h15l12 3 9 5 7 8v9l-1 3 2 10v7l-2 5 1 14-5 2-2 12-2 5-2 8-10 3-7 3-2 4 3 6v12l-6-2-24-13-11-7-7-6-1-9 1-10h6l-4-13-5-19v-15l6-12 7-6 8-4z" fill="#8F80AF"/>
<path transform="translate(799,299)" d="m0 0h25l8 1-3 6-6 3h-2v2l-6 5h-2v2h-2v2h-2l-2 4-9 12-7 16-3 12-1 7v16l3 17 2 5v5l-1 3h-2l-2 4-3 1-1 4-4-16-3-6-7 1v2h-2l-5-5-7-1-2 2-1 13-2-1v-9l-13-2v-13l4-10v-1l-4 1-3 2-2-1v-2h-2v-2l-4-1-6-3-1 10-5-4-3-9v-10l3-12 7-13 6-8 10-8 6-3 15-1 11-7 11-5z" fill="#6962A4"/>
<path transform="translate(1091,293)" d="m0 0 13 1 12 4 9 7 5 9 2 9v12l-2 7v9l-3 10-4 6v6l2 2v11l-4 8-7 8-16 24-5 8h-1l-2-16 6-6h2v-2l-4-2-3-3-11-1 1 2v17l-4 8h-2v-35l-3-1-4-15-5-13-1-16-2-9v-18l5-12 6-8 8-7 7-3z" fill="#B1CFD8"/>
<path transform="translate(727,482)" d="m0 0 3 3v10l2 30 3 13 2 10v5l-6-1h-13l5 25 3 12-5 4-25 14-24 14-28 16-15 9-6 3v-56h26l5-1-4-5-4-4-1-6h-2v-6h-2l-1-8 8-16 4-4 3 24 5 9 9 8v2l12-6 9-7 6-7 5-12v-13l-2-5 1-6 11-26 1-1h8l3-12z" fill="#2B578C"/>
<path transform="translate(799,592)" d="m0 0h5l1 3 6 1 5 3 8 4 8 3 10 3 35 7 3-2-2 4-11 14-7 7-10 7-12 7-16 5-8 1h-10l-15-3-13-5-11-7-12-11-1-2 2-1 12-2v-2l-8-10-4-3v-5l3-8 13-2 13-3z" fill="#529CC1"/>
<path transform="translate(429,550)" d="m0 0 3 4 15 71 6 29 15 70 4 21 8 36v8l-10-1-13-5-11-7-10-10-5-8-1-31 10-55v-16l-3-23-5-23-5-15-4-10v-13l4-16z" fill="#3A3292"/>
<path transform="translate(574,783)" d="m0 0 7 1 2 2h2l10 5 2 7 3 27 4 30 1 11-14-3-28-7-23-7-12-2h-15l-10 3-5 1 3-7 12-10h2v-2l11-9 3-4h2v-15l4-6 3-2 2 4v6l6-3 6-7 1-4 4-1 1 1 1 13-5-2 8 6v2l5-5-2-4v-1l-2 1-1-9z" fill="#3A3C97"/>
<path transform="translate(899,558)" d="m0 0h5l1 1 17 1 6 12 14 35v3l-11 7-6 10-3 12-1 9-8-4-3-2v-2l-5-2-6-5-1-5-8-5-3-1 8 9 5 10 1 3v13l-4 11-10-1-17-6-4-3-9-3-9-5 2-5 11-8 7-7 9-12 2-2 3-7 5-9 6-16 4-13z" fill="#307EA3"/>
<path transform="translate(1090,625)" d="m0 0 19 2 30 2 2 9 1 35 5 38 3 21v28l-3 21-5 2-9 1-5-1v-27l-2-32-2-10-11-26-11-32-6-10-9-10h-2v-2h2l1-6z" fill="#393191"/>
<path transform="translate(852,735)" d="m0 0 4 8v38l3 7-3 5v26l-22 13-16 9-7 2-10-1-12-6 1-24 1-1 12 1 3-1 1-22 5-4 6-4 1-3v-10l-2-4-10-6v-1l12-3 26-15z" fill="#3B93B8"/>
<path transform="translate(731,389)" d="m0 0h1v23l4 13 6 12 8 10 11 7h13l5-5 3-7 1-5 1-14 5 5 1 3 5 2 14 7 7 4 12 4 7 3 18 5 7 1 4-1 4 2h11v3l-9 7 2 6v10l-6-9v-2l-7 3-16 7-16 4h-28l-13-3-13-5-13-7-4-1-6 7-3 5h-1v-7l3-8 1-4-9-9v-2l10-2-7-7-7-11-5-12-3-13v-12z" fill="#529CC1"/>
<path transform="translate(716,884)" d="m0 0h11l29 2 25 1 77 1 17 3 7 2v2l-24 14-26 15-16 9-2 1h-12l-15-8-24-14-28-16-19-11z" fill="#3494AF"/>
<path transform="translate(1e3 467)" d="m0 0 3 4 22 45 4 10 35 14 3 2 6 35 5 33 1 7-5-2-8-7-6-10-2-5v-3h-2l-1 3-2 1h-9l-14-7-14-10v-9l9-36v-6l-15-6-14-5-3-7v-21l3-12 2-7z" fill="#3B77AC"/>
<path transform="translate(925,778)" d="m0 0 5 2 13 8-4 4-11 7 1 4 13 8v3l-12 7-3 5 5 2 11 7-4 4-20 12-4 8-5 2v18l-26 15-19-4-12-2-30-1 2-4 5-2 2-4 25-15 52-30 13-7-1-2-17-10 4-4 11-6 4-4-1-2-3 1-12-7 1-3 10-6z" fill="#283C7F"/>
<path transform="translate(773,511)" d="m0 0 8 1 16 3 20 1v1l-16 1 5 15 10 19 8 10 9 10 14 11 14 7 2 2 6 3 6 1v1l13 1-2 5-7 12-3 2-14-3-25-5-9-4-8-3-8-4-7-3-7-7-6-8-1-3 1-2-4-11-5-12-2-5-6-26z" fill="#8F80AF"/>
<path transform="translate(992,547)" d="m0 0h1v102l-11-6-10-6-4-13-6-9-7-5-15-36-6-15v-5l8-6v3h11l4-1 22-1z" fill="#2B578C"/>
<path transform="translate(1040,387)" d="m0 0h5l6 37 6 36 4 25 18 10 6 13 9 24 5 13-8-1-19-7-20-8-12-6 1-8 2-10 1-3-8-7-3-2 1-7 4-8v-38l-3-19v-10l4-20z" fill="#3D5AA7"/>
<path transform="translate(623,654)" d="m0 0 15 8 29 17v2l-14 8-8 4 2 4 17 9 2 3-9 6-10 5h-2l1 5 19 10 24 14 5 3-5 4-14 8-5 3-27-15-20-12z" fill="#2F7EA3"/>
<path transform="translate(756,470)" d="m0 0 4 1 17 9 16 5 6 1h28l19-5 16-8h4l5 8v7l-4 7-8 8-16 8-10 3-8 2h-28l-16-3-13-5-10-6-8-8-3-6v-6l5-8z" fill="#374B97"/>
<path transform="translate(992,654)" d="m0 0h1v85l-10 7-25 14-8 5h-2v-26l3-4 5-3 3-1 2-7-1-9-4-2-4-3v-4l6-4h2l1-11-2-4-5-3-7 6h-6v-6l13-8 23-13z" fill="#464AA2"/>
<path transform="translate(771,308)" d="m0 0h2l-1 6-6 10-5 11-6 20-3 22 12 8 7 8 5 8v3l-7 1v2h-2l-5-5-7-1-2 2-1 13-2-1v-9l-13-2v-13l4-10v-1l-4 1-3 2-2-1v-2h-2v-2l-4-1-6-3-1 10-5-4-3-9v-10l3-12 7-13 6-8 10-8 6-3 15-1 11-7z" fill="#464AA2"/>
<path transform="translate(906,789)" d="m0 0 1 2 5 2 9 5 1-2 2 4-8 6-9 5v3l15 8 1 4-5 2-20 11-24 14-26 15-6 4-7-1-1-1v-15l7-5 4-4 5-4-1-9 1-9-1-2 23-13 22-13z" fill="#364B97"/>
<path transform="translate(669,766)" d="m0 0 15 8 5 3-1 3-14 8-1 2 5 2 14 8-5 4-12 7h-2l3 3 15 9-1 3-16 9-1 2 5 2 27 15 17 10 28 16 9 5v1h-19l-24-2-7-3-28-16-24-14-2-2 1-5 10-6 1-4-11-7-1-5 10-7 4-3-14-9v-5l11-7 1-5-5-2-7-5 1-5z" fill="#283C7F"/>
<path transform="translate(623,650)" d="m0 0 11 6 27 15 24 14 28 16 26 15 10 5 8-4 6-1 11 4 4-1 3 1h8l8-3 14 1 11 6 10 1 14 7 5-1 27-15 19-11 4 1-5 4-26 15-22 13-24 14-8 4-3 1h-10l-9-4-25-14-24-14-78-45-28-16-15-9z" fill="#40CBD4"/>
<path transform="translate(906,489)" d="m0 0h17l14 7 8 9 4 8 1 5v13l-4 11-7 9-4 3-2 3h-5l-5-5-10-9-5-5v-2l-4-2-6-7-12-22 1-4 5-5 3-1 1-3z" fill="#8F80AF"/>
<path transform="translate(885,503)" d="m0 0 3 4 11 20 7 8 14 14 8 6v2l5-1 5 10 17 42 1 3-4-1h-8l-1 2v24l1 9-2-1-3 31-1 3h-5l-6-15-3 2-2-10v-21l4-11 6-8 8-5h2l-16-40-4-9-17-1-9-4-9-7-6-10-2-6v-17l5-12z" fill="#529CC1"/>
<path transform="translate(719,681)" d="m0 0 22 8 14 7 14 5 5 1 25 3 22 1 13 8 10 4 9 7 7-1 2 2-13 7-5-1-13-6-9-1-11-6h-7l-7-1-8 3h-8l-5-1-3 1-10-4-9 2-6 3-25-14-24-14-17-10 4-2 11 2 3 3z" fill="#2BB3C5"/>
<path transform="translate(890,390)" d="m0 0h10l5 3 5 6 1 3v13l-4 13-6 11-8 10-8 6-6 4h-11l-5-2-4 1-14-3 2-2h3l1-2 9 2-3-9v-10l4-14 6-11 11-12 9-6z" fill="#AFCCD7"/>
<path transform="translate(1091,293)" d="m0 0 13 1 12 4 9 7 5 9 2 9v12l-3 10h-7l-3 3-2 9-5 1-1-1-1-7-5-7-1-12-2-4h-7l-25 10h-8l-1 5h-1v-18l5-12 6-8 8-7 7-3z" fill="#8F80AF"/>
<path transform="translate(527,471)" d="m0 0 2 1 2 10v7l-2 5 1 14-5 2-2 12-2 5-2 8-10 3-7 3-2 4 3 6v12l-6-2-24-13-11-7-7-6-1-9 1-10 4 1 15 7 7 1 2-5 6-12 11-6 5 1 2 8 4-1 1-9 7-11 1-13z" fill="#B0D0D8"/>
<path transform="translate(927,446)" d="m0 0h66v38l-1 2-3 1h-47l-7-13-9-11-11-10 2-2 7-2z" fill="#283179"/>
<path transform="translate(470,562)" d="m0 0 4 1 20 12 4 2 3-2 2 6 9 5 3 2v2l4 2 12 12 5 7 2 1 1 80 1 24-2-3-6-22-5-34-1-22-3-13-6-9-6-4-3-1h-13l-11 4h-4l-6-28-4-19z" fill="#3C59A6"/>
<path transform="translate(1152,554)" d="m0 0h1l3 29v18l-2 8-2 5h-3l-11 4-17 2h-7l4-1-7-43-2-16 4-1 5 1h18l10-3z" fill="#393292"/>
<path transform="translate(467,865)" d="m0 0 1 2h2l6 12 1 1v35l4 18 7 19 4 8-7 9-7 6-7 3h-12l-5-5v-11l3-11v-35l2-14 5-21z" fill="#393292"/>
<path transform="translate(720,551)" d="m0 0h15l8 5 7 5 3 1v2l5 1 10 4 3 1v2l9 2v2l6 1 7 4 8 9v2l-10 3-18 3-17 3-10-5-10-4v-2l-10-1-3-8-4-17-1-12z" fill="#4C7FB6"/>
<path transform="translate(452,516)" d="m0 0h3v16l3 5 10 7 22 12 16 9 4 3v2l5 2 12 12 8 12 2 8v6l-4-5-8-11-10-8-10-7-3-6v-2l-3 2-5-1-13-8-22-12 8 6 5 4h-2l7 30 4 22-6 9-3 10-2 1-5-21-11-52-8-38v-4z" fill="#364A96"/>
<path transform="translate(674,526)" d="m0 0h14l1 2v7l2 2 9-1 2 5v13l-5 12-7 8-9 7-9 5h-3l-5-5-7-8-3-6-2-16v-9l9-10 10-5z" fill="#6963A5"/>
<path transform="translate(731,389)" d="m0 0h1v23l4 13 6 12 8 10 11 7 13 3 8 3 44 9 29 5 2 1v2l-17 7-13 3h-28l-13-3-13-5-13-7-4-1-6 7-3 5h-1v-7l3-8 1-4-9-9v-2l10-2-7-7-7-11-5-12-3-13v-12z" fill="#40CBD4"/>
<path transform="translate(766,628)" d="m0 0h9l38 4 43 3 5 1-1 3-10 7-12 7-16 5-8 1h-10l-15-3-13-5-11-7-12-11-1-2 2-1z" fill="#40CBD4"/>
<path transform="translate(898,442)" d="m0 0 13 7 13 11 10 11 8 14 5 13 2 8v7l-3-4-6-9-8-6-9-4h-17l-10 3-9-17-9-11-2-2 7-8 6-4 6-5z" fill="#2B578C"/>
<path transform="translate(448,785)" d="m0 0 5 2 4 4 2 40v18l-3 25-4 15-1 8v37h-6l-4-2-2-3v-30l-1-36 3-25 5-23 1-8z" fill="#393191"/>
<path transform="translate(1086,639)" d="m0 0h1v14l-3 24 1 10 6 25 1 7v19l-3 21-4 2h-11l-6-3-3-5v-12l-2-18v-5l2 1 9-36 6-26 4-6h1z" fill="#364A96"/>
<path transform="translate(902,706)" d="m0 0 2 2v23l-4 6h-2v2l5 2 14 9 1 3-5 5-6 4 1 5 8 6 3 9-9 6-10 5-3-5-2-1v-3l-5 1-5-6-3-2 2-4 5-5 3-1h3l-1-6-5-1-5-5-6-4 2-4 7-4 2-3 5-1 1-2-6-2-9-6-7-4 2-4 18-10z" fill="#3B77AC"/>
<path transform="translate(690,454)" d="m0 0 5 2 25 16 9 6v4h-2l-7 21-8 1-12 29-2 4-7 1-3-3v-7l5-11 7-17 2-4-4-2-6-7-5-13v-11z" fill="#3B76AC"/>
<path transform="translate(899,558)" d="m0 0h5l1 1 17 1 6 12 14 35v3l-7 4-5-1-27-15-11-7 1-7 4-13z" fill="#2B588D"/>
<path transform="translate(1129,171)" d="m0 0h5l14 8 13 8 11 6 15 9 11 6 15 9 11 6 15 9 11 6 15 9 11 6 7 7 3 7v77l-3 4-4 1v-75l-3-9-4-6-28-16-24-14-28-16-24-14-26-15-14-8-4-2z" fill="#23A0BF"/>
<path transform="translate(1038,596)" d="m0 0h20l7 11 6 6-2 9-13 52-2 5-2-1-4-11-6-28z" fill="#3B76AB"/>
<path transform="translate(353,243)" d="m0 0h5l34 20 14 8 19 11 35 20 41 24 6 7 3 8v74l-4 5-4 1 1-3v-73l-4-10-4-5-23-13-24-14-78-45-17-10-3-1 1-3z" fill="#3EC5D0"/>
<path transform="translate(510,795)" d="m0 0h6l5 10 5 5 4 3-2 9-11 10h-2v2l-10 8-4 3h-2l-8-19-9-22-3-6v-2z" fill="#3C59A6"/>
<path transform="translate(891,589)" d="m0 0 9 6 28 16 6 3-4 4-6 12-2 9-1 9-8-4-3-2v-2l-5-2-6-5-1-5-8-5-8-4 1-2-3-3 2-5 5-9z" fill="#3B77AC"/>
<path transform="translate(726,431)" d="m0 0 2 3 10 16 8 9-6 7-7 8-4 5-20-13-19-12 4-8 8-8 10-5 3-1z" fill="#3D59A6"/>
<path transform="translate(1051,384)" d="m0 0h8l2 7v40l3 23 2 7-3-24v-23h1l2 15 2 6 5 28 3 22 2 9-6-2-12-7-7-43-3-18-5-31v-6l-2-1z" fill="#374996"/>
<path transform="translate(875,463)" d="m0 0 5 3 9 12 6 11v6l-6 4-6 9-3 8-1 7-9 6h-7l-6-4-5-7-2-10 12-9 7-8 2-7v-10l-2-6z" fill="#A19ED6"/>
<path transform="translate(1087,548)" d="m0 0 16 8 7 3 1 12 7 41v7l-4 1h-16l-3-13-8-49z" fill="#3A3C97"/>
<path transform="translate(328,671)" d="m0 0h1l3 17 3 11 7 15 6 11 7 11-1 4-10 16-8 16-4 13-3 18h-1z" fill="#22A1C0"/>
<path transform="translate(1038,478)" d="m0 0h8l10 4 3 3-1 2 8 18 11 28 1 5-6-1-20-8-12-6 1-8 2-10 1-3-8-7-3-2 1-7z" fill="#3B77AC"/>
<path transform="translate(518,481)" d="m0 0h1v11l-6 9-1 9-5 2-2-3v-6l-7 1-9 5-8 16h-7l-12-6h-3l-1-3h3l-1-7-4-18 3-3 15 5h14l18-6z" fill="#6B64A5"/>
<path transform="translate(887,400)" d="m0 0h10l5 5 1 2v12l-4 12-7 9-7 6-6 3h-6l-5-3-3-6v-10l4-12 8-11z" fill="#3C3E98"/>
<path transform="translate(1297,694)" d="m0 0h2l1 3v88l-2 2-6-14-9-19-10-15v-4l10-15 8-16 5-9z" fill="#22A1C0"/>
<path transform="translate(1050,534)" d="m0 0 10 3 10 5 6 35 5 33 1 7-5-2-8-7-6-10-2-5v-3h-2l-1 3h-1v-13l-7-45z" fill="#3C5AA6"/>
<path transform="translate(1039,388)" d="m0 0 1 3-4 20v10l3 19v38l-4 8h-2l-11-23-8-16v-2l-2-1 8-17 8-20 9-17z" fill="#3A3292"/>
<path transform="translate(910,489)" d="m0 0h13l14 7 8 9 4 8v15l-10 2h-8l-9-3-8-6-5-7-2-6v-13l1-5z" fill="#A19ED6"/>
<path transform="translate(1090,625)" d="m0 0 19 2 20 1 1 2-13 51-2 5-3-1-10-29-6-10-9-10h-2v-2h2l1-6z" fill="#3A3C97"/>
<path transform="translate(944,609)" d="m0 0h8l7 3 6 5 5 9 1 4v17l-6 18-3 3-5-3-3-3v-3l-3-1-3-5-4-8-2-12v-21z" fill="#8F81B0"/>
<path transform="translate(591,790)" d="m0 0 4 1 2 7 3 27 4 30 1 11-9-2-7-17-9-20-8-18v-2h2l1-3 8-7z" fill="#364A96"/>
<path transform="translate(1074,538)" d="m0 0h4l7 8 2 1 3 24 8 47v2h-11l-5-2-3-16-8-50-2-11 4 1z" fill="#364A96"/>
<path transform="translate(885,503)" d="m0 0 3 4 11 20 7 8 14 14 8 6v3l-5 2h-18l-9-4-9-7-6-10-2-6v-17l5-12z" fill="#529CC1"/>
<path transform="translate(514,589)" d="m0 0 5 3 12 12 5 7 2 1 1 80 1 24-2-3-6-22-5-34-1-22-3-13-6-9z" fill="#3B92B8"/>
<path transform="translate(1e3 467)" d="m0 0 3 4 22 45 4 11-3 1-3-3-20-7-8-4-2-6v-21l3-12 2-7z" fill="#3C59A6"/>
<path transform="translate(971,633)" d="m0 0 2 4 19 11 1 1v5l-13 8-26 15-13 8-2-1-1-9 2-23 1-9 2-1v3l3 1 3 7 3 5 2 1v3l3 1 1 2 5 2 6-16 1-4z" fill="#4B7EB5"/>
<path transform="translate(677,526)" d="m0 0h11l1 2v7l2 2 9-1 2 5v13l-5 12-7 8-9 7-5 3h-2l2-7 5-8-1-9-5-10v-11z" fill="#8F81B0"/>
<path transform="translate(916,851)" d="m0 0h2l-2 6-1 2-5 2v18l-26 15-19-4-10-2 5-4 29-17 26-15z" fill="#293179"/>
<path transform="translate(1058,485)" d="m0 0 5 1 16 9 6 13 9 24 5 13-8-1-13-5-15-39-6-14z" fill="#3C59A6"/>
<path transform="translate(1146,527)" d="m0 0 2 1 4 21v6l-11 5-5 1h-18l-15-4-12-6-9-7-4-5 10 3 17 5 10 2h9l8-4 10-11z" fill="#1F1567"/>
<path transform="translate(925,778)" d="m0 0 5 2 13 8-4 4-11 7 1 4 13 8v3l-12 7-6 2-1 2-3-3-16-9 4-4 11-6 4-4-1-2-3 1-12-7 1-3 10-6z" fill="#283C80"/>
<path transform="translate(727,482)" d="m0 0 3 3v10l2 30 3 13 2 10v5l-6-1h-13l-1-4v-31l2-13-3-1h4l3-12z" fill="#3D59A6"/>
<path transform="translate(720,374)" d="m0 0 4 1 6 3v2h2v2l4-1 4-2-6 8-1 2h-2l-1 7v12l4 16 8 16 10 11v1l-12 2-12-18-7-18-2-9v-29z" fill="#3D5FA9"/>
<path transform="translate(466,807)" d="m0 0 4 4 15 37 4 8v4l-6 9-4 9-2 4-5-8-2-7h-2v-19l-2-23z" fill="#3A3D97"/>
<path transform="translate(468,545)" d="m0 0 5 2 30 16 7 5v2l5 2 12 12 8 12 2 8v6l-4-5-8-11-10-8-10-7-3-6v-2l-3 2-5-1-13-8-15-8v-2h2z" fill="#3B75AB"/>
<path transform="translate(1012,445)" d="m0 0h2l19 38 1 5v5l8 6 3 4-2 5-3 14-4-5-20-41-8-17-2-2z" fill="#3B3D98"/>
<path transform="translate(1030,527)" d="m0 0h1l9 55v5l4 2 7-1 4-3 2 5-1 4h-9l-14-7-14-10v-9l10-40z" fill="#3B93B9"/>
<path transform="translate(727,588)" d="m0 0 9 2v2l10 3 10 5v7l-1 3 1 4 5 5 7 8-2 2-12 2-4-1-7-8-11-18-6-15z" fill="#3B94B9"/>
<path transform="translate(744,378)" d="m0 0h9l11 7 7 8 5 8v3l-7 1v2h-2l-5-5-7-1-2 2-1 13-2-1v-9l-13-2v-13l4-10z" fill="#3A3493"/>
<path transform="translate(689,477)" d="m0 0 30 19 1 1v6l-8 1-12 29-2 4-7 1-3-3v-7l5-11 7-17 2-4-4-2-6-7z" fill="#42E5DF"/>
<path transform="translate(726,431)" d="m0 0 1 2-2 1-1 4 4 8 2 7 5 10v3l-4 1-16-8-18-11-3-2 8-8 10-5 3-1z" fill="#374B97"/>
<path transform="translate(1078,494)" d="m0 0 5 2 12 6 5 8 12 31 2 5v3l-9-1-7-2-3-9-10-26-6-15z" fill="#364A96"/>
<path transform="translate(931,556)" d="m0 0 3 1 12 29 10 25-4-1h-10l-20-50z" fill="#42E4DF"/>
<path transform="translate(1080,404)" d="m0 0h11l7 6v2l-7 6 1 18-15 30h-1v-35l4-8z" fill="#201668"/>
<path transform="translate(414,303)" d="m0 0h7l8 5 6 7 3 7v12l-5 8-3 2h-3v8l-8-4-1-1v-10l7-5 2-4v-9l-4-4h-1l-1 6-6-1-3-2-1-8 2-6z" fill="#B2D2D9"/>
<path transform="translate(1088,703)" d="m0 0h1l3 16v19l-3 21-4 2h-11l-1-3 6-26 6-23z" fill="#3A3C97"/>
<path transform="translate(510,795)" d="m0 0h6l5 10 5 5 4 3-2 9-11 10-3 1-4-9-10-24v-3z" fill="#3A77AB"/>
<path transform="translate(651,543)" d="m0 0h1l3 24 5 9 9 8 1 3-14 5-4-2-3-5-3-2-1-6h-2v-6h-2l-1-8 8-16z" fill="#3D5AA7"/>
<path transform="translate(863,498)" d="m0 0 4 2 7 8 4 8v8l-8 5h-7l-6-4-5-7-2-10 12-9z" fill="#B1D0D8"/>
<path transform="translate(955,611)" d="m0 0 4 1 6 5 5 9 1 4v17l-3 10-2 1-5-5-4-7-3-9v-24z" fill="#A19ED6"/>
<path transform="translate(500,575)" d="m0 0 2 1 1 5 9 5 3 3 2 14v9l-9-4-9-1-3-9-3-14v-8l5 1z" fill="#3B76AC"/>
<path transform="translate(720,551)" d="m0 0h15l4 2 1 3-2 9-1 7h-2l-1 5-4 10-4 2-3-8-4-17-1-12z" fill="#3A77AB"/>
<path transform="translate(906,789)" d="m0 0 1 2 5 2 9 5 1-2 2 4-8 6-9 5v3l15 8 1 4-5 2-16 9h-2l1-3 4-4-1-6-2-3v-12l-1-17z" fill="#3A3B97"/>
<path transform="translate(550,826)" d="m0 0 4 4 7 16 3 9-10-2-19-5-7-1v-3l15-13z" fill="#393292"/>
<path transform="translate(1124,480)" d="m0 0h4l-1 5-9 6 12 1 1 1v5l-2 1-2 5-6 2-2 4-9-1-10-4 2-4 3-1 2-5 6-9 8-5z" fill="#AFCCD7"/>
<path transform="translate(718,709)" d="m0 0 12 6 13 8v2l-23 13-5-5-1-2v-19z" fill="#3A94B9"/>
<path transform="translate(623,650)" d="m0 0 11 6 27 15 24 14 28 16 19 11v4l-6-2-28-16-24-14-28-16-22-13z" fill="#42E1DE"/>
<path transform="translate(997,481)" d="m0 0 4 2 13 26 5 12-6-1-14-5-3-7v-21z" fill="#3A74AA"/>
<path transform="translate(841,419)" d="m0 0 17 6 1 4-1 5v10l3 8 1 3h-2v-2l-5-1-10-7-4-6-1-5v-10z" fill="#539DC2"/>
<path transform="translate(925,778)" d="m0 0 5 2 13 8-4 4-11 7-1 4-4-4-1-2-3 1-12-7 1-3 10-6z" fill="#283C80"/>
<path transform="translate(716,345)" d="m0 0 9 1h7v4l-1 2h-2v3l-3 3-5 16-2 10-5-4-3-9v-10l3-12z" fill="#383290"/>
<path transform="translate(729,410)" d="m0 0 2 4 5 15 6 11 10 11v1l-12 2-12-18-6-16v-5l4-3h3z" fill="#3A93B8"/>
<path transform="translate(755,400)" d="m0 0 7 1 5 4 4 9v10l-3 4h-7l-7-8-2-5v-12z" fill="#42E5E0"/>
<path transform="translate(851,399)" d="m0 0 6 4 10 3v4l-6 13-1 3-11-3-7-3 1-7 7-13z" fill="#8F80AF"/>
<path transform="translate(727,482)" d="m0 0 3 3v10l2 28-1 3-3 1-3-3-5-1-2-2v-12l1-5-3-1h4l3-12z" fill="#464BA3"/>
<path transform="translate(591,790)" d="m0 0 4 1 2 7 3 27v10l-4-5-13-30 1-4z" fill="#3C58A5"/>
<path transform="translate(448,785)" d="m0 0 5 2 4 4 1 24v19l-4-4-5-13-2-2z" fill="#3A3C97"/>
<path transform="translate(971,633)" d="m0 0 2 4 19 11v3l-21 12-5 3-2-1 6-18z" fill="#3E78AD"/>
<path transform="translate(1135,396)" d="m0 0h1l-1 14h-7l3 4-1 4-13 14-9 11-11 13-14 19-2 4-2-1 8-15 11-15 11-14 13-15 4-4-2-8h8l2-9z" fill="#1F1567"/>
<path transform="translate(452,516)" d="m0 0h3v16l3 5 10 7v10l-3 1-9-5-4-1-6-26v-4z" fill="#384B97"/>
<path transform="translate(741,610)" d="m0 0 11 1 7 5 8 10 1 2-5 2-12 1-8-9-6-11z" fill="#22A1C0"/>
<path transform="translate(686,527)" d="m0 0 3 1v7l2 2 9-1 2 5v13l-4 9-2 2-4-5-2-1-3-10-1-7z" fill="#A09ED6"/>
<path transform="translate(1038,478)" d="m0 0h8l10 4 3 3-8 7-6 9-4-2-8-6 1-7z" fill="#B0CDD7"/>
<path transform="translate(693,696)" d="m0 0 5 1-1 24-7-1-8-4-2-3v-9l5-5z" fill="#3994B9"/>
<path transform="translate(768,475)" d="m0 0 36 4 26 4 3 2-6 2h-28l-13-3-13-5-5-3z" fill="#42E3DF"/>
<path transform="translate(908,533)" d="m0 0 16 7 7 2h12l2 2-8 9-2 1-2 3h-5l-5-5-10-9-5-5z" fill="#6963A5"/>
<path transform="translate(796,650)" d="m0 0h39l3 1v2l-16 5-8 1h-10l-15-3-7-3 4-2z" fill="#42E6E0"/>
<path transform="translate(1038,596)" d="m0 0 16 1-8 31-2 7h-2l-3-25z" fill="#3A93B8"/>
<path transform="translate(944,645)" d="m0 0 2 1 3 7 3 5 2 1v3l3 1 1 2 5 2 17-10 13-7-1 5-36 21-3-1-4-7-5-19z" fill="#529BC1"/>
<path transform="translate(879,522)" d="m0 0 4 4 10 14 14 18-3 1-6-2-9-6-6-8-4-10z" fill="#41CBD4"/>
<path transform="translate(509,569)" d="m0 0 7 4 11 11 8 12 2 8v6l-4-5-8-11-10-8-5-3v-8z" fill="#3A92B8"/>
<path transform="translate(456,550)" d="m0 0 5 2 24 13 11 7 6-1 4 8 12 8 9 8 7 10 2 5-5-4-7-8-7-7-2-1v-2l-4-2-9-5-1-5-4 2-24-15-12-8z" fill="#201969"/>
<path transform="translate(656,592)" d="m0 0 10 2 3 2-44 8h-2v-11h26z" fill="#307EA3"/>
<path transform="translate(1197,233)" d="m0 0 5 1 5 3-1 20-2 22-4-1-2-25z" fill="#B2D2D9"/>
<path transform="translate(737,413)" d="m0 0 2 4 8 17 9 11 9 6 5 2v2h-9l-11-7-9-11-6-12-2-5 1-5h3z" fill="#464EA3"/>
<path transform="translate(870,367)" d="m0 0 7 1 6 7v5l-10 2-11 4-2-4 1-9 6-5z" fill="#B2D2D9"/>
<path transform="translate(690,754)" d="m0 0h2v22l-3 2-18-10v-2l14-9z" fill="#3594AF"/>
<path transform="translate(1090,625)" d="m0 0 15 2 1 2-5 18-1 2h-2l-9-11-4-2v-2h2l1-6z" fill="#364A96"/>
<path transform="translate(724,433)" d="m0 0 4 1 10 16 8 9-6 7-5 4v-2l-2-1 2-3-4-7-3-7-4-10-1-3z" fill="#464CA3"/>
<path transform="translate(692,753)" d="m0 0 5 1 16 9-1 3-17 9h-3z" fill="#3594B0"/>
<path transform="translate(688,469)" d="m0 0 10 6 19 12 6 3-1 7-2 4-1-4-19-12-12-8z" fill="#22A1C0"/>
<path transform="translate(738,616)" d="m0 0 3 1 8 11 2 4-6 2h-7l-9-3-3-2 1-4 9-8z" fill="#307EA3"/>
<path transform="translate(1125,332)" d="m0 0 5 2-1 11h-7l-3 3-2 9-5 1-1-1-1-7-3-4 1-4 12-6z" fill="#6D66A6"/>
<path transform="translate(687,463)" d="m0 0 6 2 19 12 13 8-1 6-7-3-19-12-9-6-2 4z" fill="#3A93B8"/>
<path transform="translate(468,545)" d="m0 0 5 2 17 9-1 12-14-7-9-5v-2h2z" fill="#3E5BA7"/>
<path transform="translate(689,477)" d="m0 0 30 19 1 1v6h-8l-1-3-12-7-5-3-4-8z" fill="#40CBD4"/>
<path transform="translate(1045,500)" d="m0 0 2 3 9 22v4l-5-1-10-4-1-1 1-8 2-10z" fill="#3B91B8"/>
<path transform="translate(992,711)" d="m0 0h1v24l-11-6-6-4 1-5 13-8z" fill="#3B3D98"/>
<path transform="translate(992,654)" d="m0 0h1v24l-14-8-5-5 13-8z" fill="#3B3D98"/>
<path transform="translate(992,682)" d="m0 0h1v24l-8-4-10-7 1-3z" fill="#3B3D98"/>
<path transform="translate(929,619)" d="m0 0 2 1-4 41-2 4-2-4-1-6v-21l4-11z" fill="#41CED6"/>
<path transform="translate(553,795)" d="m0 0 2 2-1 4-11 9-3 2v8l4 4 1 3-4 3-4-2-7-5 2-2 3 3v-19l3-5h2v6l6-3z" fill="#22196A"/>
<path transform="translate(690,559)" d="m0 0 4 2 3 5-7 8-9 7-5 3h-2l2-7 6-11h4z" fill="#529CC1"/>
<path transform="translate(887,620)" d="m0 0 5 1 8 5 4 2 6 5 10 4 1 2v9l-8-4-3-2v-2l-5-2-6-5-1-5-8-5z" fill="#4B7EB5"/>
<path transform="translate(726,431)" d="m0 0 1 2-2 1-1 4 4 8 1 4-5-1-1-2-10-4-5-4-3-3 10-4z" fill="#3A3C96"/>
<path transform="translate(1068,385)" d="m0 0 2 4-1 3-5 4v41l3 24v5l-2-4-3-14-2-17v-36l5-4h2l-1-5z" fill="#1F1567"/>
<path transform="translate(896,421)" d="m0 0h4l1 5-4 8-9 10-9 5h-6l2-4 9-6 7-8z" fill="#4A4DA3"/>
<path transform="translate(729,435)" d="m0 0h10l8 11 5 6-12 2-11-16z" fill="#2AA2C1"/>
<path transform="translate(817,889)" d="m0 0h10l3 3v6l-6 5-8 4-1-1v-15z" fill="#3B94B9"/>
<path transform="translate(1041,524)" d="m0 0 4 1 29 12-1 5-8-2-23-9z" fill="#393492"/>
<path transform="translate(922,437)" d="m0 0h68l-1 2-65 1-5 2h-14v-3l15-1z" fill="#293179"/>
<path transform="translate(574,783)" d="m0 0 7 1 2 2-6 7-7 6-5 2-2 1-1-9z" fill="#383893"/>
<path transform="translate(900,530)" d="m0 0 8 6 7 8 8 7 5 4v3l-5 2h-5l-5-9-8-12-5-7z" fill="#4C7FB6"/>
<path transform="translate(550,783)" d="m0 0 3 1v12l-7 8-3 2h-3l-1-12 7-4z" fill="#AFCCD7"/>
<path transform="translate(845,410)" d="m0 0 5 2 12 5-2 9-11-3-7-3 1-7z" fill="#6B63A5"/>
<path transform="translate(925,778)" d="m0 0 5 2 13 8-4 4-5 3-5-1-4-9-3-5z" fill="#383290"/>
<path transform="translate(719,395)" d="m0 0 5 1 5 3 1 11-1 2-6 3-2 3-2-9z" fill="#3975AA"/>
<path transform="translate(743,317)" d="m0 0h12v2l-9 7-15 4-3-2 9-8z" fill="#6761A4"/>
<path transform="translate(726,715)" d="m0 0 5 1 12 7v2l-11 6-4-1-1-1z" fill="#3994B9"/>
<path transform="translate(931,685)" d="m0 0 3 1v3l-23 13-10 5-3-3 21-12z" fill="#529BC1"/>
<path transform="translate(708,703)" d="m0 0 4 3v23l-4 1-2-2v-22z" fill="#3A94B9"/>
<path transform="translate(893,495)" d="m0 0h2l2 16v5l-3 1-3-3-5-9 1-4 5-5z" fill="#6B63A5"/>
<path transform="translate(698,536)" d="m0 0h2l2 5v13l-4 9-2-3-2-22z" fill="#B2D2D9"/>
<path transform="translate(842,437)" d="m0 0 15 5 4 10 1 3h-2v-2l-5-1-10-7-3-4z" fill="#42C9D4"/>
<path transform="translate(531,606)" d="m0 0 7 6v34h-1l-1-11-5-21z" fill="#22A1C0"/>
<path transform="translate(930,828)" d="m0 0 5 2 8 5-4 4-7 4h-2v-2h-2v-10z" fill="#38318F"/>
<path transform="translate(929,804)" d="m0 0 5 2 9 6-3 3-10 5-3-4 1-8z" fill="#38318F"/>
<path transform="translate(692,753)" d="m0 0 5 1 6 3v1h-6v12h6l-4 3-4 2h-3z" fill="#3A94B8"/>
<path transform="translate(502,576)" d="m0 0h2l5 5 10 7 8 7 7 10 2 5-5-4-7-8-7-7-2-1v-2l-4-2-9-5z" fill="#222470"/>
<path transform="translate(959,673)" d="m0 0 1 2-8 11-5 4h-6v-6l13-8z" fill="#474BA3"/>
<path transform="translate(716,345)" d="m0 0 9 1h7v4l-1 2h-2v3l-3 1v-2l-12-1 1-6z" fill="#3A3C97"/>
<path transform="translate(537,796)" d="m0 0 2 1-1 5-2 3v20l-5-3v2l-3-1 1-4h2v-15l4-6z" fill="#3A3C97"/>
<path transform="translate(526,585)" d="m0 0 5 5 4 6 2 8v6l-4-5-7-10z" fill="#249FBF"/>
<path transform="translate(501,546)" d="m0 0 5 5 5 10v8l-7-4-1-1-1-13z" fill="#1F1768"/>
<path transform="translate(841,419)" d="m0 0 17 6 1 4-1 2-5-1-9-3h-4z" fill="#4F7FB5"/>
<path transform="translate(417,352)" d="m0 0 4 1 6 3v11l-6-2-4-3z" fill="#B2D2D9"/>
<path transform="translate(682,566)" d="m0 0 4 2v7l2 1-12 8h-2l2-7z" fill="#4B7EB5"/>
<path transform="translate(1021,559)" d="m0 0h2l3 14v7l-4-1-3-2v-9z" fill="#249CBD"/>
<path transform="translate(1041,524)" d="m0 0 4 1 12 5v6l-10-3-5-2z" fill="#3A3E98"/>
<path transform="translate(1197,280)" d="m0 0 6 2 3 2v11l-9-5z" fill="#B2D2D9"/>
<path transform="translate(933,495)" d="m0 0 5 2 4 4-2 4-3 2-5-1-2-3 1-5z" fill="#B0CDD8"/>
<path transform="translate(498,763)" d="m0 0 2 1 8 24-1 1h-5l-2-10z" fill="#374896"/>
<path transform="translate(926,661)" d="m0 0 3 4 4 11v8l-4-4-5-13z" fill="#22A2C1"/>
<path transform="translate(1068,380)" d="m0 0 2 3v2l-4 1 1 5-6 3-2-10-2-1z" fill="#3D3E98"/>
<path transform="translate(556,791)" d="m0 0 2 1 1 13-5-2 8 6v2l-5-2-5-3-1-4 3-2-1-8z" fill="#3D3C98"/>
<path transform="translate(1212,318)" d="m0 0 4 2-8 14-5 5h-2l2-6z" fill="#249EBD"/>
<path transform="translate(885,503)" d="m0 0 3 4 10 18-1 2-14-17 1-6z" fill="#4D7FB6"/>
<path transform="translate(752,465)" d="m0 0 4 3-1 4-5 6-3 5h-1v-7l3-8z" fill="#41DFDD"/>
<path transform="translate(1054,585)" d="m0 0 2 2 1 6-1 1h-9l-6-3v-2h7l5-3z" fill="#41DFDC"/>
<path transform="translate(729,410)" d="m0 0 2 4 1 9-10-3v-5l4-3h3z" fill="#4A80B6"/>
<path transform="translate(749,625)" d="m0 0 14 1 3 1v2l-12 2-4-1-2-4z" fill="#2AB2C4"/>
<path transform="translate(835,888)" d="m0 0h12l-4 4-7 4h-4l1-5z" fill="#3B94B9"/>
<path transform="translate(436,390)" d="m0 0 2 1-1 5-7 12-4 3-2-1 10-17z" fill="#3EC5D1"/>
<path transform="translate(997,500)" d="m0 0 3 4 5 10v2l-6-1-2-4z" fill="#3A91B7"/>
<path transform="translate(690,477)" d="m0 0 5 2 18 11 8 5v6l-2-4-19-12-10-7z" fill="#2BB1C4"/>
<path transform="translate(677,762)" d="m0 0h3l2 7-1 3-4-1-6-3v-2z" fill="#259EBC"/>
<path transform="translate(850,451)" d="m0 0 10 2v2h3v2l-4 1-14-3 2-2h3z" fill="#9E9DD4"/>
<path transform="translate(726,715)" d="m0 0h4l1 12 1 4-4-1-1-1z" fill="#3495B0"/>
<path transform="translate(868,469)" d="m0 0h2l2 5v10l-2-3-5-8 1-3z" fill="#41E0DD"/>
<path transform="translate(789,889)" d="m0 0 3 1 1 2v9l-5-2v-8z" fill="#3B94B9"/>
<path transform="translate(736,428)" d="m0 0 4 5 6 9 4 5 4 4-4-1-9-10-5-9z" fill="#42D7D9"/>
<path transform="translate(887,400)" d="m0 0h9v4h-12l1-3z" fill="#3D3694"/>
<path transform="translate(959,673)" d="m0 0 1 2-6 8-4-2-1-2z" fill="#6A63A5"/>
<path transform="translate(881,536)" d="m0 0 5 5 7 11-4-1-6-8-2-4z" fill="#42E4DF"/>
<path transform="translate(878,610)" d="m0 0h3l-2 5-3 2-3-2z" fill="#9E99CF"/>
<path transform="translate(528,824)" d="m0 0 6 1 5 4-1 2-10-5z" fill="#46ACC7"/>
<path transform="translate(1131,494)" d="m0 0 2 4-3 3-3 5h-6l3-2h3l2-6h2z" fill="#4A499C"/>
<path transform="translate(552,804)" d="m0 0 6 2 4 3v2l-5-2-5-3z" fill="#42AEC8"/>
<path transform="translate(706,760)" d="m0 0 6 2v4l-5 3-2-1 4-2v-4l-3-1z" fill="#3B94B9"/>
</svg>
